<svg
  class="fill-current"
  xmlns="http://www.w3.org/2000/svg"
  width="18"
  height="32"
  viewBox="0 0 18 32"
  id="jekyll"
>
  <path d="m 0.36540776,28.150101 c -0.1509567,1.800825 0.75655944,3.147003 2.45793014,3.601649 1.3976813,0.371176 3.0120303,-0.28593 3.7028783,-1.532654 0.20246,-0.353417 2.491674,-6.228296 5.0828008,-13.060418 4.359984,-11.4780357 4.763127,-12.4725739 5.36873,-13.0941603 0.371176,-0.3871595 0.673089,-0.774319 0.673089,-0.8755488 0,-0.1012297 -0.319673,-0.4706296 -0.706833,-0.8080622 C 15.395365,0.98322539 11.759973,-0.17825319 10.211335,0.22666592 9.9591492,0.29415242 9.9076462,0.496612 9.9076462,1.270931 c 0,0.9767786 -0.168716,1.5823813 -1.177462,4.1397652 a 85.050774,85.050774 0 0 0 -1.042489,2.8610732 34.071812,34.071812 0 0 1 -0.992762,2.6088866 c -0.252187,0.605603 -0.808062,2.003284 -1.228965,3.11326 -0.420903,1.109976 -1.211206,3.214489 -1.767081,4.695641 -0.555876,1.463392 -1.1774627,2.861073 -1.3976818,3.079516 z M 14.033203,1.2371878 c 1.699595,0.7068325 2.575144,1.5646216 1.868311,1.8345677 C 15.228425,3.323942 12.216395,2.2477096 11.424317,1.455631 11.120627,1.1519417 11.104644,1.0524878 11.27336,0.83226863 11.55929,0.51259564 12.671041,0.66355233 14.033203,1.2354118 Z m -2.793586,2.138257 c 0.605602,0.639346 1.834567,1.093992 3.180746,1.1437189 0.673089,0.033743 1.211205,0.067487 1.211205,0.1012298 0,0.015984 -0.117213,0.2184432 -0.252186,0.4209028 -0.134973,0.2024595 -0.690849,1.5646216 -1.244949,3.0120299 -0.875549,2.2892138 -1.093992,2.7260998 -1.699595,3.2819758 -0.925275,0.841806 -2.390443,1.665852 -3.4506908,1.918038 -0.454646,0.117214 -1.161479,0.337433 -1.564622,0.522133 -0.403143,0.168716 -0.808062,0.303689 -0.875549,0.303689 -0.150957,0 0.319673,-1.379922 1.935798,-5.5552061 0.522132,-1.3461785 1.212981,-3.147003 1.5308778,-4.0065681 0.337432,-0.8418055 0.657105,-1.548638 0.724592,-1.548638 0.06749,0 0.301913,0.1846999 0.504373,0.4031431 z m 1.481151,8.4819902 c -0.04973,0.06749 -1.616124,4.139765 -3.4666748,9.037865 -2.996047,7.910131 -3.450693,8.988139 -3.972825,9.458769 -0.319673,0.303689 -0.722816,0.555876 -0.875549,0.538116 -0.20246,0 -0.134973,-0.06749 0.168716,-0.1847 0.269946,-0.10123 0.454646,-0.28593 0.454646,-0.47063 0,-0.168716 0.06749,-0.353416 0.150957,-0.420902 0.08347,-0.04973 0.218443,-0.337433 0.28593,-0.623363 0.04973,-0.303689 0.168716,-0.655329 0.236203,-0.808062 0.252186,-0.47063 1.010521,-2.440171 1.010521,-2.575144 0,-0.08347 0.10123,-0.387159 0.236203,-0.673089 0.134973,-0.303689 0.555876,-1.379921 0.943036,-2.390443 0.387159,-1.026506 0.857789,-2.271454 1.044265,-2.777603 0.202459,-0.504373 0.420902,-0.992763 0.504373,-1.078009 0.06749,-0.101229 0.134973,-0.319673 0.134973,-0.488389 0,-0.168716 0.118989,-0.571859 0.252186,-0.891532 0.5043728,-1.145495 0.7245918,-1.683611 1.0105208,-2.507657 0.150957,-0.47063 0.353417,-0.976779 0.436887,-1.127735 0.168716,-0.319673 0.202459,-0.808063 0.06749,-0.808063 -0.04973,0 -0.303689,0.117214 -0.555875,0.269946 -0.40492,0.236203 -0.40492,0.236203 0.04973,-0.117213 0.28593,-0.218443 0.774319,-0.639346 1.093992,-0.943035 0.538117,-0.504373 0.976779,-0.740576 0.790303,-0.420903 z m -4.6618968,2.390443 c 0,0.08347 -0.117214,0.168717 -0.269946,0.168717 -0.319673,0 -0.790303,1.093992 -0.790303,1.800824 0.01598,0.303689 -0.04973,0.555876 -0.134973,0.555876 -0.269946,0 -0.857789,1.379921 -0.943035,2.271454 -0.08347,0.774319 -0.04973,0.909292 0.236203,1.078008 0.454646,0.236203 0.571859,0.75656 0.269946,1.177462 -0.252187,0.371176 -0.959019,0.47063 -1.143719,0.1847 -0.252187,-0.404919 -0.436887,-0.134973 -0.337433,0.47063 0.08347,0.571859 0.0515,0.673089 -0.301913,0.824046 -0.269946,0.134973 -0.522133,0.488389 -0.706833,1.010522 -0.589619,1.598365 -1.127735,3.01203 -1.447408,3.837852 a 7.7307583,7.7307583 0 0 0 -0.4368864,1.649867 c -0.08347,0.690849 -0.033743,0.85779 0.3036894,1.244949 l 0.4031431,0.454646 -0.5381162,-0.3694 C 1.6654113,30.220872 0.99232206,29.02565 0.99232206,28.420047 c 0,-0.202459 0.48838924,-1.683611 1.09399204,-3.315719 0.6056027,-1.616125 1.0939921,-3.045773 1.0939921,-3.147003 0,-0.117213 0.555876,-0.758335 1.211205,-1.431425 0.67309,-0.673089 1.109976,-1.228965 0.976779,-1.228965 -0.133197,0 -0.488389,0.236203 -0.790303,0.538117 -0.301913,0.301913 -0.555876,0.454646 -0.555876,0.337432 0,-0.506149 1.582382,-4.207251 1.985525,-4.645914 0.3694,-0.403143 1.816808,-1.447408 2.003284,-1.447408 0.03374,0 0.0515,0.06749 0.0515,0.168716 z" />
</svg>
