<svg
  class="fill-current"
  version="1.1"
  width="720"
  viewBox="0 0 720 380"
  xmlns="http://www.w3.org/2000/svg"
  xmlns:svg="http://www.w3.org/2000/svg"
  style="shape-rendering:geometricPrecision; text-rendering:geometricPrecision; image-rendering:optimizeQuality; fill-rule:evenodd; clip-rule:evenodd"
>
  <path d="m 412.70003,338.37389 c 10.22424,-10.63238 17.68929,-22.6487 24.81723,-36.50609 -10.90725,0 -20.76239,-0.10242 -30.61362,0.049 -4.10265,0.063 -5.40929,-1.72136 -5.16429,-5.59715 0.1517,-2.40008 1.07754,-3.70798 3.37843,-4.09847 26.37397,-4.47597 45.58663,-20.25855 61.76069,-40.15025 24.28736,-29.86981 48.00592,-60.20195 72.00769,-90.30461 1.83857,-2.30596 2.83771,-4.16258 0.76639,-7.10991 C 516.06318,121.09098 494.30668,86.248115 469.35702,53.632699 462.97567,45.290674 455.8403,37.607935 447.24467,31.41063 436.83001,23.901874 425.00604,20.290359 412.4169,19.094554 c -3.62522,-0.344326 -5.18509,-1.452758 -5.1143,-5.191542 0.0728,-3.836618 2.25884,-4.3406588 5.33201,-4.3382753 41.76376,0.032678 83.52752,0.029831 125.29128,0.00765 2.96995,-0.00155 5.36129,0.2698657 5.46929,4.1901493 0.0997,3.618238 -1.11602,5.141814 -4.92876,5.332218 -5.02974,0.251258 -10.06352,1.039864 -14.80463,2.980936 -8.91751,3.65098 -12.03611,10.570806 -8.75939,19.563012 2.12092,5.820168 5.41572,11.016708 8.83454,16.130943 13.56149,20.286526 27.1358,40.564511 40.72694,60.831125 0.78931,1.17704 1.41797,2.55564 2.92499,3.13583 1.9806,0.18957 2.79559,-1.42489 3.75335,-2.64489 18.08003,-23.03004 36.33426,-45.927584 54.11022,-69.190543 12.37363,-16.193087 7.17021,-28.031642 -12.95108,-30.671133 -2.14105,-0.280791 -4.33759,-0.369355 -6.49313,-0.256456 -3.59066,0.188088 -5.37373,-1.082574 -5.27858,-4.947103 0.0911,-3.70167 2.06424,-4.4670669 5.25137,-4.4619679 31.45834,0.050324 62.91669,0.042246 94.37514,0.015759 2.8649,-0.00242 5.0318,0.5116219 4.9436,4.0754619 -0.065,2.629161 0.1036,5.03537 -3.6569,5.32328 -21.8616,1.67382 -37.61656,14.106273 -50.6403,30.233242 -23.16122,28.679935 -45.7149,57.85033 -68.56867,86.77921 -1.93908,2.45451 -3.01332,4.43637 -0.84149,7.58268 27.31294,39.56694 52.77385,80.39896 81.34549,119.10643 4.62191,6.26143 9.64232,12.22423 15.50222,17.37158 7.67748,6.74394 16.65335,10.61582 26.85215,11.82931 2.5425,0.30254 6.1588,-0.43603 6.5263,3.9767 0.3226,3.8744 -0.5484,6.10046 -5.166,6.08649 -38.50918,-0.1166 -77.01867,-0.0759 -115.52808,-0.086 -2.69211,-6.6e-4 -5.17304,-0.22056 -5.1431,-3.91015 0.0269,-3.31189 0.88412,-5.55305 4.87836,-5.45088 2.3191,0.0594 4.65197,-0.57277 6.98425,-0.84684 14.2696,-1.67747 20.66049,-12.99467 14.16796,-25.81087 -3.00855,-5.93889 -6.86248,-11.46758 -10.5375,-17.04765 -15.11253,-22.9468 -30.29857,-45.84528 -45.47605,-68.74925 -1.06974,-1.61419 -2.28984,-3.12866 -3.99332,-5.44035 -4.41771,5.59951 -8.43778,10.61594 -12.37376,15.69749 -18.37111,23.71764 -36.72209,47.45091 -55.07096,71.18575 -1.99934,2.58629 -3.66422,5.38083 -4.81692,8.44977 -3.38353,9.0079 0.12641,16.62193 9.18225,20.00381 3.59548,1.34273 7.37056,1.67117 11.13762,2.13926 3.15872,0.39246 6.66436,0.31658 6.42876,5.28553 -0.23818,5.02398 -3.63767,4.53464 -6.9005,4.53577 -14.82521,0.004 -29.65579,0.21739 -44.47294,-0.13124 -5.39743,-0.12693 -7.87321,1.50934 -9.59391,6.83427 -6.27434,19.41747 -13.25231,38.60662 -19.76272,57.94986 -1.24275,3.6925 -3.13277,5.0267 -7.03252,5.02074 -68.70211,-0.1048 -137.40447,-0.0896 -206.10677,-0.0784 -3.24216,5.2e-4 -6.11642,0.16375 -6.01147,-4.60127 0.10415,-4.72527 3.05736,-4.61694 6.24694,-4.5141 7.68304,0.24771 15.06426,-0.65582 22.10148,-4.19051 6.2437,-3.13615 9.62624,-8.10737 10.59643,-14.74345 0.70323,-4.80984 1.16462,-9.70284 1.17039,-14.55949 0.0772,-64.9055 0.0827,-129.81109 0.008,-194.7166 -0.007,-5.40287 -0.4622,-10.83871 -1.16098,-16.20037 -1.45438,-11.15877 -6.79898,-16.5386 -17.84747,-18.785785 -5.36711,-1.091679 -10.77323,-1.116874 -16.19371,-1.044765 -2.85202,0.03797 -4.84818,-0.43183 -4.90414,-4.054074 -0.0545,-3.523944 1.38539,-4.992362 4.75442,-4.952433 1.80731,0.02142 3.61549,-0.04162 5.42327,-0.04184 66.35194,-0.0088 132.70389,-0.01662 199.05583,-0.01825 8.38956,-1.98e-4 8.18058,0.02609 8.57371,8.232701 0.78606,16.408886 1.82089,32.805946 2.76467,49.207186 0.1484,2.57827 0.6027,5.29524 -3.18614,5.61903 -3.31089,0.28291 -5.98822,-0.0436 -6.84778,-4.21299 -1.20051,-5.82301 -2.64336,-11.62471 -4.44048,-17.29026 -4.20528,-13.25764 -13.18365,-21.32503 -27.03866,-23.48869 -4.8042,-0.75024 -9.69972,-1.24656 -14.55677,-1.27255 -25.85306,-0.13853 -51.70763,-0.0136 -77.56029,-0.18355 -4.34043,-0.0286 -6.02312,1.11313 -5.99855,5.76143 0.17388,32.90388 0.1617,65.8094 0.0256,98.71358 -0.0176,4.25309 1.30732,5.64781 5.58457,5.60934 20.42833,-0.18409 40.85964,-0.0126 61.28843,-0.16706 4.30573,-0.0325 8.66497,-0.60178 12.89647,-1.44253 13.67933,-2.71806 20.84509,-10.96526 23.61916,-26.8217 0.49689,-2.8404 1.04352,-5.70336 1.15357,-8.57176 0.11912,-3.10768 1.67097,-4.06964 4.47047,-4.05769 2.75262,0.0118 4.55947,0.96785 4.66184,3.99435 0.0367,1.08377 0.0971,2.16769 0.0973,3.25156 0.005,28.56565 -0.0125,57.13125 0.0265,85.69694 0.004,3.54231 -0.0858,6.62171 -5.0259,6.24905 -2.55968,-0.19315 -3.93784,-1.01589 -4.34739,-3.71276 -0.6764,-4.45373 -1.54151,-8.88818 -2.5443,-13.28119 -3.56106,-15.59955 -12.7357,-23.61929 -28.7936,-24.1728 -16.25384,-0.56019 -32.53304,-0.36598 -48.80059,-0.55443 -6.32295,-0.0732 -12.64881,-0.18938 -18.96454,-0.47941 -3.52782,-0.16203 -5.32614,0.77255 -5.31236,4.77673 0.11475,33.26599 -0.0567,66.53344 0.16747,99.79837 0.0916,13.57134 4.97961,18.23901 18.50181,18.31305 22.23658,0.12177 44.47825,0.21805 66.71064,-0.12906 15.07804,-0.2354 28.90047,-4.34705 39.91387,-16.08321 z" />
  <path d="m 235.09777,45.682468 c -8.7537,-11.454401 -20.42913,-16.519701 -34.05556,-16.96855 -14.63011,-0.481924 -29.28386,-0.205834 -43.9248,-0.426765 -4.04425,-0.06098 -5.28104,1.595653 -5.27657,5.504149 0.0848,73.945788 0.024,147.891828 0.1672,221.837428 0.0122,6.27772 0.89313,12.6169 1.99991,18.81509 1.89998,10.64061 8.46836,16.59791 19.30625,18.23669 4.64671,0.70257 9.30124,1.25123 14.02741,1.08079 2.89082,-0.10436 5.81597,-0.41876 5.89592,4.1382 0.0787,4.47605 -2.38595,4.97843 -5.84222,4.96968 -17.17561,-0.0437 -34.35134,-0.023 -51.52705,-0.0265 -20.43005,-0.004 -40.860072,-0.002 -61.290122,-0.027 -1.95998,-0.002 -4.1301,0.40365 -5.68006,-1.15137 -1.59518,-1.60039 -1.1131,-3.71747 -0.70898,-5.65331 0.42551,-2.03848 2.12241,-2.20514 3.81182,-2.23117 4.51385,-0.0697 9.00227,-0.12342 13.50897,-0.79346 15.056012,-2.2384 22.286232,-9.7594 23.256372,-25.11951 0.59207,-9.37408 0.98961,-18.77736 1.00375,-28.16826 0.0925,-61.47081 0.0577,-122.9418 0.0612,-184.412758 4.3e-4,-7.405757 -0.0413,-14.811612 -0.017,-22.217269 0.009,-2.549667 -0.14753,-4.69005 -3.62811,-4.643831 -17.336832,0.230401 -34.699972,-0.944778 -52.004412,0.9611 -14.78326,1.628198 -24.14665,10.497936 -30.44069,23.20065 -3.15095,6.359236 -4.83768,13.195233 -5.48025,20.286195 -0.29493,3.25441 -1.05704,5.957501 -5.43386,5.753587 -3.5727101,-0.166435 -4.6760101,-1.560822 -4.4849001,-5.033549 1.06147,-19.289603 1.9948601,-38.586424 2.9171601,-57.883378 0.33545,-7.0184226 0.40653,-7.1805543 7.56554,-7.1814808 75.39228,-0.00973 150.784642,0.026984 226.176732,-0.10151 4.87585,-0.00831 7.3003,1.1415729 7.48041,6.4486958 0.65568,19.312846 1.62092,38.615031 2.39723,57.924101 0.1048,2.608369 0.67151,5.548781 -3.63157,5.802026 -3.76263,0.221461 -5.55212,-0.901108 -6.12556,-4.848507 -1.43253,-9.860668 -3.36645,-19.626679 -10.02412,-28.070214 z" />
</svg>
