<svg
  class="fill-current"
  version="1.1"
  viewBox="0 0 86 128"
  xmlns="http://www.w3.org/2000/svg"
  xmlns:svg="http://www.w3.org/2000/svg"
>
  <!-- Modified favicon from https://shopify.github.io/liquid/ -->
  <path d="M 21.547735,119.91617 C 0.82172339,106.87893 -2.1118146,82.356542 6.4497764,63.468958 14.47484,45.764978 23.01599,28.295367 31.268927,10.69397 33.624566,5.6699936 36.591833,1.85157 42.911449,2.0044316 47.720385,2.120752 51.277706,3.7501412 53.393378,8.2294668 58.362667,18.750514 63.408041,29.2356 68.399604,39.746169 c 3.937131,8.290246 8.239795,16.434864 11.679246,24.927981 8.57902,21.184402 3.8721,46.72982 -20.191449,57.51346 -12.494393,5.59913 -25.69817,5.18603 -38.339666,-2.27144 M 29.84052,31.06195 C 23.888717,43.418065 17.96266,55.786665 11.978385,68.127036 5.0083414,82.500183 8.8510354,101.34465 20.776993,111.02309 33.386931,121.25663 51.833223,121.4193 64.71653,111.41056 76.488454,102.26524 80.94047,83.135646 74.483666,69.231414 71.782948,63.415624 68.956126,57.658544 66.218161,51.859887 59.99552,38.681166 53.873095,25.453825 47.478007,12.359517 46.689551,10.745109 44.491686,8.854695 42.942062,8.8504024 41.423749,8.8461824 39.300467,10.784679 38.484687,12.397537 35.509299,18.280084 32.969515,24.382963 29.84052,31.06195 Z" />
  <path d="m 18.38505,69.145066 c 6.038603,-12.16312 11.936355,-23.952195 17.910357,-35.702504 1.143235,-2.248637 2.172778,-5.309829 5.686319,-3.585981 3.744913,1.837367 1.912055,4.488557 0.641585,6.996051 -5.639374,11.130286 -11.287354,22.256499 -16.858932,33.420761 -6.149657,12.322616 -4.385287,25.079621 4.800107,32.106877 2.625759,2.00882 6.061751,3.25191 9.321152,4.04563 2.571461,0.62619 5.429742,0.83296 4.399529,4.04225 -0.457165,1.42418 -3.594766,2.90167 -5.442238,2.81366 C 28.806062,112.80367 18.764362,103.98339 16.840428,94.136068 15.222849,85.856782 15.233365,77.584182 18.38505,69.145066 Z" />
</svg>
