<svg 
  class="fill-current"
  id="postgresql"
  version="1.1"
  viewBox="0 0 512 512"
  xmlns="http://www.w3.org/2000/svg"
  xmlns:svg="http://www.w3.org/2000/svg"
>
  <!-- Created by Vorillaz (https://iconscout.com/contributors/vorillaz) -->
  <path d="m 495.742,309.03193 c -5.35688,-6.20505 -14.50821,-4.5087 -21.58376,-3.10252 -17.00809,3.03556 -35.51164,6.56218 -51.98404,-0.51337 29.41819,-46.42628 52.56437,-97.11574 65.51016,-150.61757 4.70959,-20.33382 8.3478,-41.13636 7.65587,-62.072837 -0.51336,-11.718172 -2.14275,-24.195236 -9.30757,-33.904578 A 134.34605,134.34605 0 0 0 414.29512,10.81003 C 378.9174,1.2122891 340.97285,4.0692911 306.17545,14.827689 c -2.87932,0.580328 -5.714,-0.714251 -8.52636,-1.071376 C 266.06583,7.3503793 231.24611,9.8725763 203.85907,28.152924 170.98123,16.323151 135.64815,9.1806462 100.64987,12.84118 74.624372,15.541939 48.487268,27.639557 33.554969,49.803642 14.671972,77.458529 12.105134,112.76929 15.118378,145.17841 c 6.071129,43.03359 16.561683,85.39757 29.909239,126.7125 8.794209,25.75766 18.481232,51.7162 34.127782,74.21509 7.946036,11.04856 18.503551,22.18641 32.721601,23.92739 12.63331,1.5401 24.06131,-6.29433 31.80647,-15.57959 13.3922,-16.02599 27.16384,-31.76182 41.44885,-46.98429 9.32989,4.57567 19.46332,7.20947 29.81996,7.99068 -5.60241,6.65146 -10.22272,15.33406 -19.15085,17.94554 -12.03065,4.64263 -26.11478,4.01766 -36.71694,12.03066 -6.11577,4.37478 -6.40593,13.90556 -0.91513,18.92764 9.93255,9.64238 24.57468,11.71817 37.78832,12.83419 a 71.648252,71.648252 0 0 0 51.87244,-17.14202 c -0.0893,29.77532 0.0446,59.63992 3.39269,89.259 1.67402,17.34289 9.15133,34.61882 22.34265,46.29236 12.43242,10.84767 30.15476,13.10203 45.93523,10.35663 15.49031,-2.94629 31.4047,-7.58891 43.50232,-18.16875 12.85651,-11.33873 18.34731,-28.45842 20.89183,-44.88618 a 2080.0314,2080.0314 0 0 0 11.47265,-88.58938 c 33.10104,5.58008 70.55455,-0.75889 95.28547,-24.93181 5.28992,-4.97743 10.312,-13.59308 5.08904,-20.35614 z M 422.2858,29.045738 c 19.86509,7.54427 37.52047,20.646303 50.77875,37.230306 6.31665,7.923717 7.12018,18.570513 7.52195,28.302176 0.29016,23.21315 -4.39711,46.13612 -10.35664,68.45645 a 487.87773,487.87773 0 0 1 -50.48858,117.78437 97.763036,97.763036 0 0 1 -7.07554,10.46823 1340.7821,1340.7821 0 0 1 -0.80353,-4.08462 c 2.70076,-7.09786 6.65145,-13.79396 8.19156,-21.33823 5.44616,-21.27127 0.84817,-43.16751 -1.11602,-64.57271 -2.05347,-20.19989 4.84351,-39.8641 4.66495,-60.01936 0.78121,-9.86558 -3.12485,-19.19548 -6.9193,-28.05665 -13.727,-30.690457 -35.55628,-57.988218 -63.5683,-76.737293 -6.83002,-4.687269 -14.46357,-7.968357 -21.27127,-12.677947 29.77532,-6.383613 61.71571,-5.580081 90.41965,5.222957 z M 404.13937,201.33635 c 1.74099,23.90507 8.68261,49.57345 -2.58915,72.2509 -15.11087,-30.06548 -34.64115,-58.76942 -41.44885,-92.24991 -1.91955,-10.6468 -2.4106,-24.12828 7.05322,-31.53862 12.00834,-8.52637 27.69953,-6.60682 41.58277,-5.75865 -0.60265,19.17316 -6.49521,37.9892 -4.57567,57.29628 z M 133.99645,342.95883 c -5.42384,6.38362 -12.74491,13.99485 -21.98553,12.09762 C 101.20788,351.93161 94.333221,342.06602 88.306733,333.20485 72.035214,307.17935 62.23659,277.78348 53.241498,248.61081 43.17503,214.08126 34.693305,178.9937 29.805154,143.32582 27.372238,116.1843 28.89002,87.07859 42.773264,62.905675 53.174537,44.603006 72.570902,32.929475 92.949361,29.112699 c 32.632319,-6.272013 66.090489,0.379445 97.405909,9.932545 a 143.69827,143.69827 0 0 0 -30.84669,52.631333 212.17704,212.17704 0 0 0 -10.40127,81.424563 c 1.18298,19.35172 0.66961,38.79273 -2.03115,57.98821 -3.39269,25.06573 6.67378,50.84571 25.28893,67.76452 -12.67795,14.82069 -26.11478,28.94946 -38.39096,44.12728 z m 28.57002,-89.79468 c -3.19181,-14.19572 0.98209,-28.48073 1.45082,-42.69878 1.09369,-16.09296 -0.0446,-32.20824 -0.35713,-48.30119 15.0439,-9.73167 32.63232,-17.3429 50.86803,-16.29384 a 22.141765,22.141765 0 0 1 20.4231,16.38312 c 8.28084,32.96712 10.84768,69.66174 -5.02207,100.88788 a 295.52114,295.52114 0 0 0 -13.88325,37.18567 c -26.38263,0.26784 -48.81456,-22.03017 -53.4795,-47.14054 z m 82.09416,88.25458 c -16.56168,22.43193 -49.70737,26.71743 -73.65708,14.50821 11.80745,-5.46848 25.62374,-5.04439 37.02942,-11.78513 11.02625,-5.93721 15.40103,-18.9946 25.71302,-25.71302 11.22713,-1.58474 19.41869,15.08854 10.93696,22.96762 z M 386.7072,315.21467 c -6.29433,10.13342 -4.08462,22.49889 -5.62472,33.74833 -3.6159,31.53862 -7.16483,63.12189 -12.29851,94.45963 -2.43291,15.02158 -8.81652,30.98061 -22.98993,38.45792 -14.53054,7.38803 -31.4047,12.03066 -47.74318,9.50846 -15.51263,-2.72308 -25.28894,-17.18665 -29.68604,-31.27078 -3.21413,-11.80745 -3.54893,-24.15059 -4.46407,-36.31517 a 1116.1057,1116.1057 0 0 1 -0.82585,-88.14297 c 0.64729,-11.47265 -5.24528,-23.41403 -15.49031,-28.99411 -4.95511,-2.79004 -10.75839,-3.16949 -16.29383,-3.61589 4.35246,-21.58376 17.49913,-40.22123 22.00784,-61.78267 5.84792,-26.67279 2.61148,-54.43928 -3.37037,-80.77727 -2.92396,-13.14667 -12.92347,-24.77556 -26.22639,-27.96737 -20.49006,-5.15599 -41.15868,2.857 -59.48367,11.42801 2.32131,-29.77532 10.28967,-60.26489 28.52538,-84.437805 a 84.594043,84.594043 0 0 1 56.42579,-32.877843 c 36.64998,-4.664948 75.13022,5.42384 104.25825,28.346816 a 165.30435,165.30435 0 0 1 53.32326,73.746372 c -17.03041,-0.60265 -36.33749,-1.29458 -50.10913,10.53519 -12.49939,10.5352 -14.10645,28.50306 -11.29409,43.5916 6.51754,35.89109 27.69953,66.40298 43.32376,98.67817 4.15158,7.56659 9.73166,14.17341 15.0439,20.95879 -6.31666,3.19181 -13.36988,6.24969 -16.96345,12.74491 z m 43.83712,25.37821 c -11.24944,1.33922 -22.9453,1.74098 -33.79297,-1.98651 0.0446,-6.13809 -0.29017,-13.41452 4.64262,-17.99018 3.90606,-2.87933 9.46382,-5.53545 13.97253,-2.38828 19.19548,10.11111 41.51581,5.17832 61.93891,2.70076 -12.47706,12.14226 -29.753,17.81162 -46.76109,19.66421 z M 371.57402,154.2851 c -3.99534,3.28109 0.31248,8.19156 3.74981,9.73166 8.32548,4.88816 19.73117,-1.94186 19.99901,-11.45032 -7.52195,-3.50429 -16.96344,-3.14717 -23.77114,1.71866 z m -147.35881,15.17782 c 3.54893,-2.00882 7.29875,-7.52195 3.19181,-10.84767 -5.84793,-4.75423 -14.35197,-5.66937 -21.47216,-3.74982 -2.29899,0.80353 -4.70959,2.36596 -4.24086,5.17832 1.6517,9.5531 14.44125,15.35638 22.49889,9.41917 z" />
</svg>
