<?xml version="1.0" encoding="UTF-8" standalone="no"?>
<svg
   class="fill-current"
   version="1.1"
   viewBox="0 0 1016.3696 509.39313"
   xmlns="http://www.w3.org/2000/svg"
   xmlns:svg="http://www.w3.org/2000/svg"
   style="shape-rendering:geometricPrecision; text-rendering:geometricPrecision; image-rendering:optimizeQuality; fill-rule:evenodd; clip-rule:evenodd"
>
  <path d="m 577.53542,63.928591 c 0,12.46063 0.31924,24.38202 -0.0772,36.279559 -0.55331,16.60301 -9.06154,29.10968 -25.04482,34.4356 -3.8334,1.27739 -8.08782,1.75849 -12.15482,1.7896 -21.98784,0.16818 -43.97999,0.28331 -65.9659,0.0206 -20.57305,-0.24592 -36.73236,-14.50938 -36.48308,-36.10387 0.25164,-21.802919 0.49101,-43.622429 -0.0792,-65.413329 -0.47686,-18.22359 16.3537,-35.36927996 34.84703,-34.92842996 23.25853,0.55446 46.54212,0.31043 69.81149,0.0738 16.48308,-0.16764 32.89528,12.57390996 33.99565,30.03931996 0.6973,11.06603 0.78805,22.17028 1.15085,33.80727 z"/>
  <path d="m 577.53535,260.63881 c 0.47786,18.43258 -10.88369,32.9848 -25.00419,36.68829 -3.77684,0.99063 -7.72335,1.83538 -11.59891,1.86606 -22.17719,0.17546 -44.35666,0.12519 -66.53511,0.0734 -20.5073,-0.0479 -36.98316,-14.62243 -36.61479,-36.4527 0.37416,-22.1723 -0.15395,-44.35913 0.15526,-66.53343 0.26098,-18.71362 15.13687,-32.81227 32.85826,-33.22792 24.54796,-0.57579 49.1281,-0.53935 73.67786,-0.004 15.96045,0.34811 30.79134,12.46729 31.73705,29.1535 1.28,22.58792 0.95888,45.2666 1.32457,68.43681 z"/>
  <path d="m 577.53535,415.82112 c 0.0286,10.66299 -0.38072,20.6739 -6.54221,29.39927 -6.11585,8.66084 -14.02942,14.37629 -24.96588,14.59339 -24.09647,0.47847 -48.2105,1.42388 -72.29086,0.91857 -17.70831,-0.3716 -31.07279,-9.48586 -35.27176,-28.32918 -0.38886,-1.74516 -0.5718,-3.57233 -0.57479,-5.36186 -0.0378,-22.53345 0.41795,-45.07838 -0.16267,-67.59692 -0.47944,-18.59352 16.68157,-35.42713 34.85619,-35.00616 23.80314,0.55137 47.62957,0.007 71.44419,0.17902 16.73286,0.1211 31.19421,12.83196 32.20275,29.38367 1.24154,20.37624 0.93982,40.84655 1.30504,61.8202 z"/>
  <path d="m 293.79377,143.1223 c 0.0164,-9.52948 -0.53915,-18.46404 4.93065,-26.59419 5.44008,-8.08598 13.05648,-11.6514 22.24518,-11.81885 17.02693,-0.31029 34.07634,-0.50115 51.09242,0.028 16.64419,0.51766 26.42805,10.32331 27.15391,27.14506 0.71779,16.63528 0.29766,33.32733 0.11615,49.99162 -0.1761,16.16799 -12.92568,27.56949 -27.88081,27.29369 -16.47752,-0.30388 -32.96503,-0.0485 -49.44812,-0.0752 -16.8528,-0.0273 -27.72465,-11.18942 -28.14756,-28.06258 -0.312,-12.44606 -0.0617,-24.90623 -0.0618,-37.90763 z"/>
  <path d="m 373.70802,337.77043 c -17.3601,5e-4 -34.21032,-0.12274 -51.05795,0.0349 -17.28005,0.16168 -28.74821,-11.35948 -28.83922,-29.09265 -0.0808,-15.74981 -0.21874,-31.50384 0.0508,-47.24947 0.19519,-11.40545 4.90549,-20.56911 15.64395,-25.50716 3.4684,-1.59494 7.55876,-2.48711 11.38267,-2.54705 17.02804,-0.26694 34.07299,-0.48551 51.09195,-0.01 16.56263,0.46232 26.67232,10.47001 27.27509,27.65432 0.55183,15.73087 0.0332,31.49694 0.14053,47.24645 0.11099,16.29685 -9.15984,27.48296 -25.68779,29.47112 z"/>
  <path d="m 304.87937,367.45051 c 4.85981,-4.35493 10.59211,-5.32021 16.30561,-5.40026 16.85864,-0.23634 33.73155,-0.42537 50.58217,0.0114 16.78098,0.43497 26.85327,10.45279 27.47508,27.48985 0.6012,16.47342 0.33288,32.9892 0.0727,49.48047 -0.25715,16.30275 -11.87657,27.35828 -27.72972,27.40186 -16.49523,0.0453 -32.9907,0.009 -49.48606,0.01 -16.84748,0.001 -28.00709,-11.15592 -28.2578,-28.50095 -0.22513,-15.57569 -0.10678,-31.15757 -0.0253,-46.73611 0.0494,-9.42528 3.00872,-17.63605 11.06325,-23.75653 z"/>
  <path d="m 617.77834,321.39351 c -0.78514,-4.06047 -1.65119,-7.78953 -1.68515,-11.52621 -0.15177,-16.67403 0.11256,-33.35269 -0.11882,-50.02489 -0.20935,-15.08967 11.07763,-26.06837 25.81695,-26.4434 17.58023,-0.44734 35.18511,-0.34815 52.77077,-0.0246 12.864,0.23665 26.2989,11.20276 26.01684,26.22214 -0.31984,17.03591 -0.34603,34.08807 0.008,51.12264 0.31582,15.22659 -12.03742,27.21905 -27.03498,27.0862 -16.8573,-0.14931 -33.71777,0.0597 -50.57539,-0.0671 -11.58307,-0.0871 -20.32134,-4.89012 -25.19746,-16.34474 z"/>
  <path d="m 631.74615,106.82901 c 4.46739,-0.74973 8.47996,-2.04769 12.51106,-2.10829 16.11967,-0.24227 32.24746,0.0688 48.36781,-0.15075 14.27871,-0.19447 28.47185,11.2309 27.98768,27.7511 -0.48833,16.65866 -0.10206,33.3428 -0.10921,50.01578 -0.007,15.43856 -11.27496,26.74903 -26.6674,26.75897 -16.67299,0.011 -33.35912,-0.41036 -50.01518,0.11987 -16.33769,0.5201 -28.64778,-12.84501 -27.96298,-27.96011 0.74549,-16.45598 0.33871,-32.97418 0.11189,-49.46081 -0.16116,-11.71566 5.5171,-19.52164 15.77634,-24.96576 z"/>
  <path d="m 650.15442,361.96628 c 14.45969,-10e-5 28.37868,0.19698 42.28963,-0.0549 14.36282,-0.26001 28.7586,11.1643 28.18261,28.10723 -0.55969,16.45986 -0.38591,32.95909 -0.044,49.4309 0.31468,15.16137 -12.03032,27.16923 -27.05371,27.02998 -16.84361,-0.15614 -33.69527,-0.30287 -50.53325,0.0425 -15.60288,0.31991 -27.56714,-12.74223 -27.09929,-27.05908 0.55587,-17.01001 0.41,-34.05805 0.0429,-51.07829 -0.29628,-13.73847 10.91706,-25.88445 25.98133,-26.4059 2.56034,-0.0886 5.1263,-0.0124 8.23383,-0.0124 z"/>
  <path d="m 815.67376,271.78176 c -13.51229,0.002 -26.52879,-0.18028 -39.53759,0.0603 -10.73642,0.19851 -21.15508,-9.34042 -20.58794,-20.24546 0.6464,-12.42974 0.51927,-24.93313 0.0415,-37.37814 -0.44436,-11.5734 10.00129,-20.90877 20.91458,-20.59722 12.27009,0.35027 24.55789,0.0726 36.83797,0.0828 11.84231,0.01 20.40162,8.50208 20.43223,20.31067 0.0299,11.54685 0.007,23.09383 0.007,34.64077 -6e-5,13.7341 -4.17057,19.21092 -18.10749,23.12632 z"/>
  <path d="m 182.71932,323.52903 c 0.72215,-5.47158 0.70871,-10.66204 2.33242,-15.27645 2.68582,-7.63285 9.33402,-10.85735 16.95785,-11.0707 13.18073,-0.36885 26.38228,-0.27743 39.56933,-0.0482 10.99864,0.19117 19.70771,9.93237 19.3408,19.73217 -0.47943,12.80667 -0.54435,25.66363 0.0189,38.46346 0.44302,10.06739 -8.99629,19.8035 -19.80226,19.82658 -12.82459,0.0274 -25.64939,0.0444 -38.47381,-0.005 -11.22772,-0.0433 -19.86089,-8.59559 -19.92953,-19.75322 -0.0642,-10.44252 -0.0138,-20.88571 -0.0138,-31.86855 z"/>
  <path d="m 755.69765,326.78487 c 0.49691,-6.76674 -1.20516,-13.11628 2.23987,-19.15071 3.86302,-6.76671 9.60034,-10.26813 17.02095,-10.45923 13.17312,-0.33925 26.36293,-0.21923 39.54283,-0.055 10.07437,0.12549 19.50046,8.70813 19.32593,19.76481 -0.19948,12.62949 -0.0259,25.26463 -0.0519,37.89726 -0.0244,11.83662 -8.54078,20.35499 -20.36079,20.37563 -12.44957,0.0218 -24.90224,-0.16389 -37.34785,0.0565 -10.61453,0.18795 -20.94351,-8.94008 -20.44847,-20.42312 0.39396,-9.13715 0.0795,-18.30481 0.0795,-28.00611 z"/>
  <path d="m 248.81437,270.04107 c -4.06161,0.78341 -7.78973,1.61643 -11.53058,1.67808 -11.17679,0.18416 -22.35854,0.0725 -33.53834,0.0643 -12.61238,-0.009 -21.01274,-8.3451 -21.02383,-20.86983 -0.011,-12.27945 -0.0225,-24.55895 0.003,-36.83833 0.0249,-11.82424 8.5605,-20.35803 20.3487,-20.3707 12.46271,-0.0134 24.92837,0.16439 37.38727,-0.0542 10.57951,-0.18562 20.83037,8.94023 20.4385,20.49976 -0.42823,12.63148 -0.12513,25.28877 -0.0876,37.93465 0.0252,8.50195 -4.00025,14.26733 -11.99729,17.95623 z"/>
  <path d="m 239.75927,478.54081 c -13.16132,3e-5 -25.80482,-0.34563 -38.42006,0.10338 -11.19059,0.39831 -18.4009,-9.31322 -18.55586,-18.08612 -0.24242,-13.72528 -0.17009,-27.45911 -0.0262,-41.18717 0.0939,-8.9539 8.75785,-17.6736 17.69533,-17.77204 14.09399,-0.15519 28.19171,-0.13099 42.28636,-0.01 9.63441,0.0826 17.99936,8.75787 18.04799,18.55296 0.0628,12.63092 -0.2541,25.26975 0.0936,37.8914 0.323,11.72681 -7.91524,22.00669 -21.12118,20.5077 z"/>
  <path d="m 770.78313,401.70555 c 14.93076,-0.12522 29.39206,-0.16217 43.85322,-0.13986 10.74159,0.0166 19.10571,8.38006 19.13611,19.13172 0.0363,12.81379 0.0249,25.62775 0.004,38.44161 -0.0194,11.89157 -7.55358,19.39964 -19.42414,19.40139 -13.54612,0.002 -27.09693,-0.21919 -40.63682,0.0714 -10.449,0.22418 -17.70831,-9.05556 -17.9235,-17.65458 -0.34798,-13.9035 -0.41578,-27.83219 0.0199,-41.73074 0.28729,-9.16451 6.33749,-14.37085 14.97117,-17.5209 z"/>
  <path d="m 136.6868,440.77635 c 3.75857,3.56119 5.53113,7.39836 5.40347,12.31382 -0.22344,8.60317 -0.48064,17.24205 0.0463,25.81865 0.62303,10.13989 -6.14337,16.73027 -15.9119,17.07173 -10.13989,0.35445 -20.34231,-0.31935 -30.483281,-1.02985 -6.463035,-0.45283 -11.88448,-6.68957 -11.967612,-13.12029 -0.127837,-9.88951 -0.173972,-19.78453 0.0088,-29.6723 0.161225,-8.69813 6.130894,-14.28563 14.865406,-14.30476 8.608927,-0.0188 17.229967,-0.27202 25.821607,0.11401 4.00305,0.17986 7.94912,1.62743 12.21669,2.80899 z"/>
  <path d="m 927.42257,440.80558 c 1.98406,4.30574 4.71414,8.21147 5.1124,12.34201 0.76992,7.98573 -0.23823,16.13199 0.34582,24.14937 0.68528,9.40552 -3.50094,17.91297 -16.09893,18.62476 -10.46121,0.5911 -21.05412,-0.12851 -31.52057,-1.0454 -5.8942,-0.51638 -10.68494,-6.99199 -10.75535,-13.04943 -0.11928,-10.25676 -0.14036,-20.51737 0.005,-30.77344 0.0983,-6.93756 6.26842,-13.08069 13.20741,-13.16829 10.62272,-0.13411 21.25302,-0.2009 31.8697,0.0862 2.52998,0.0685 5.01916,1.6501 7.83449,2.83417 z"/>
  <path d="m 919.17633,353.16724 c 7.46323,0.36472 13.4504,6.26267 13.548,13.21509 0.13881,9.8816 0.20493,19.77034 -0.0145,29.64901 -0.20043,9.01859 -7.14184,14.64258 -14.83107,14.39653 -9.50772,-0.30421 -19.05906,-0.50921 -28.54173,0.0652 -7.59997,0.46034 -15.47112,-7.41587 -15.00125,-15.01984 0.57459,-9.29895 0.10019,-18.66066 0.14775,-27.99486 0.045,-8.81679 5.66302,-14.30697 14.53908,-14.31016 9.88355,-0.003 19.76709,-8.7e-4 30.1538,-9.3e-4 z"/>
  <path d="m 137.29307,406.82963 c -4.1958,1.36823 -8.04316,3.17372 -11.97387,3.37841 -8.95153,0.46621 -17.95008,-0.0569 -26.917887,0.21101 -7.242852,0.21633 -14.307448,-5.06072 -14.588296,-14.07709 -0.313522,-10.06515 -0.178228,-20.14901 -0.03607,-30.22191 0.0959,-6.79424 6.517594,-12.92445 13.271836,-12.94446 10.441177,-0.0309 20.882507,-0.021 31.323747,-0.004 7.43231,0.0122 13.48335,5.64638 13.61032,13.0682 0.17545,10.25507 0.39231,20.53415 -0.15859,30.76254 -0.17481,3.2456 -2.74603,6.36209 -4.53122,9.82722 z"/>
  <path d="m 4.4621994,507.56264 c -1.6392921,-3.50802 -3.84229198,-6.61552 -4.12375318,-9.88824 -0.5933552,-6.89939 -0.2428231,-13.88603 -0.1624587,-20.83549 0.07804,-6.74779 4.67020558,-11.39116 11.37088448,-11.47457 7.132205,-0.0889 14.267041,-0.0806 21.399477,-0.002 6.183899,0.0683 11.08214,4.8925 11.174067,11.09896 0.113759,7.68036 0.100431,15.3646 6.54e-4,23.04535 -0.06177,4.7551 -3.954831,9.57097 -8.443662,9.7174 -9.135245,0.29797 -18.287809,0.13476 -27.4314372,0.019 -1.164513,-0.0147 -2.3182259,-0.88239 -3.7837714,-1.68063 z"/>
  <path d="m 973.35134,472.25725 c 2.44494,-4.61389 5.84661,-6.95926 10.76254,-6.92482 6.76668,0.0474 13.53411,-0.0257 20.30082,0.0218 7.4277,0.0522 11.8743,4.54745 11.9186,12.04189 0.042,7.13252 0.058,14.26596 -0.01,21.39817 -0.057,6.27142 -4.2264,10.47092 -10.4637,10.52412 -7.68091,0.0655 -15.36326,0.073 -23.04398,-0.002 -6.28002,-0.0618 -10.52028,-4.24683 -10.42657,-10.55083 0.12915,-8.6901 0.54378,-17.37597 0.95867,-26.50775 z"/>
</svg>
