<svg
  class="fill-current"
  viewBox="0 0 256 512"
  version="1.1"
  xmlns="http://www.w3.org/2000/svg"
  xmlns:svg="http://www.w3.org/2000/svg"
>
  <g transform="matrix(16.380754,0,0,16.380754,-503.02688,-191.74651)">
    <path d="m 44.003817,12.717797 c -1.313292,-1.171051 -2.903442,-0.700727 -4.472608,0.692137 -0.232983,0.206825 -0.46542,0.436402 -0.696633,0.681645 -2.68463,2.847989 -5.1766,8.123095 -5.950761,12.15194 0.301653,0.61162 0.537227,1.392041 0.692277,1.988265 0.03978,0.15287 0.07561,0.296475 0.104376,0.418551 0.06812,0.289116 0.104769,0.476455 0.104769,0.476455 0,0 -0.02411,-0.09101 -0.122894,-0.377402 -0.01881,-0.05491 -0.03979,-0.114853 -0.06459,-0.185434 a 2.1499896,2.1499896 0 0 0 -0.04143,-0.102474 c -0.175087,-0.407105 -0.659448,-1.266286 -0.872676,-1.640419 a 40.972837,40.972837 0 0 0 -0.478366,1.496412 c 0.615433,1.126083 0.990521,3.055898 0.990521,3.055898 0,0 -0.03259,-0.125065 -0.187203,-0.561614 -0.137339,-0.385991 -0.821164,-1.584284 -0.983165,-1.864411 -0.277124,1.023082 -0.387216,1.713721 -0.28789,1.881849 0.19279,0.325768 0.376316,0.888066 0.537635,1.509762 0.364184,1.400628 0.617197,3.105902 0.617197,3.105902 0,0 0.0082,0.113095 0.02206,0.286942 -0.0507,1.176229 -0.02029,2.39578 0.07086,3.498026 0.120579,1.459214 0.347705,2.71269 0.637232,3.383574 l 0.196609,-0.1071 c -0.425086,-1.321737 -0.597846,-3.053852 -0.522231,-5.05152 0.114441,-3.053309 0.817077,-6.73568 2.115382,-10.573638 2.193592,-5.793664 5.236821,-10.442162 8.022134,-12.662185 -2.538704,2.292777 -5.9746,9.714055 -7.003134,12.46217 -1.151704,3.077568 -1.967827,5.96547 -2.459682,8.732391 0.848686,-2.594018 3.592578,-3.708933 3.592578,-3.708933 0,0 1.345724,-1.659773 2.91843,-4.03103 -0.942017,0.214863 -2.488976,0.582734 -3.007128,0.800457 -0.764346,0.320594 -0.970216,0.43 -0.970216,0.43 0,0 2.475617,-1.507716 4.599723,-2.190322 2.921153,-4.600812 6.103764,-11.136889 2.898811,-13.995912" />
  </g>
</svg>
