<svg
  class="fill-current"
  version="1.1"
  viewBox="0 0 846 512"
  xmlns="http://www.w3.org/2000/svg"
  xmlns:svg="http://www.w3.org/2000/svg"
>
  <path d="m 803.28871,170.73468 c -31.57029,48.85676 -77.00433,74.73386 -133.52053,82.53788 -36.25789,5.0067 -72.2541,3.67317 -107.78651,-5.50358 -29.27338,-7.56015 -56.03006,-20.67817 -78.80171,-40.4274 -20.87611,-18.10519 -40.21459,-37.98044 -60.2843,-57.01916 -14.47894,-13.73523 -29.33168,-27.22956 -48.30725,-34.38265 -41.76006,-15.74197 -81.03109,-10.63252 -117.31513,15.65792 -14.28839,10.35302 -26.2483,23.08255 -37.25528,36.77 -0.72098,0.89662 -1.49407,1.75134 -3.16729,2.22725 2.27578,-7.64369 4.30466,-15.37138 6.87238,-22.9157 8.63406,-25.36831 20.24968,-49.20917 36.99821,-70.315673 27.30051,-34.404151 63.04417,-55.074245 105.72405,-63.770035 45.19079,-9.2073594 90.19923,-8.0230052 134.45809,5.492172 27.08603,8.271187 51.61051,21.919647 72.73462,40.704931 19.20362,17.077456 37.11642,35.601235 55.72695,53.352475 12.35723,11.78655 25.12631,23.0681 40.44935,31.04565 19.41503,10.10801 40.19941,13.38378 61.76197,12.21693 27.53744,-1.4902 51.37239,-12.55763 71.75974,-30.51099 10.82047,-9.52861 20.06209,-20.85026 30.01649,-31.362309 0.48824,-0.515477 0.97887,-1.028578 1.8835,-1.319684 -6.41634,27.489273 -16.67113,53.358743 -31.94735,77.521973 z" />
  <path d="m 45.932684,336.39788 c 28.923192,-42.08653 68.880596,-66.55613 118.350016,-75.66064 45.64811,-8.40126 90.91919,-6.69267 135.16703,8.2015 25.36936,8.5395 48.41531,21.72959 68.2883,39.6166 19.00053,17.10186 36.88881,35.43564 55.37614,53.11272 14.53484,13.89778 29.54769,27.42353 48.71331,34.55687 43.27871,16.10817 83.43453,9.84583 120.12255,-18.2548 12.9087,-9.88713 23.87567,-21.71088 34.01334,-34.35004 0.7245,-0.90323 1.51938,-1.7499 3.16934,-2.21712 -2.27137,7.65152 -4.28658,15.39045 -6.86082,22.93874 -8.69904,25.50834 -20.39062,49.48137 -37.29737,70.66446 -26.54642,33.26084 -61.06356,53.74451 -102.38262,62.713 -46.02281,9.98952 -91.8903,8.95002 -137.08825,-4.6879 -27.26428,-8.22661 -51.87947,-21.99021 -73.17349,-40.8186 C 254.31072,436.2798 237.47303,419.00855 220.1484,402.29223 208.18541,390.74916 196.03724,379.45596 181.66331,370.85671 160.8962,358.43271 138.202,354.29963 114.40289,355.5966 87.716026,357.05091 64.329592,367.41678 44.396,384.71363 c -11.336195,9.83665 -21.059459,21.53241 -31.504036,32.39582 -0.591856,0.61564 -1.13797,1.27532 -2.128029,1.68344 6.971753,-29.39619 18.013265,-57.01676 35.168749,-82.39501 z" />
</svg>
