<svg
  version="1.1"
  x="0px"
  y="0px"
  width="100%"
  viewBox="0 0 1024 1024"
  xml:space="preserve"
  xmlns="http://www.w3.org/2000/svg"
  xmlns:svg="http://www.w3.org/2000/svg"
>
  <path
     stroke="none"
     d="m 646.93633,37.280804 c 56.40902,30.232417 98.60219,73.406846 125.48825,130.911596 17.29038,36.98139 25.04828,76.01605 24.05592,117.04027 -1.17535,48.58571 -11.67581,94.5854 -35.70205,136.9453 -30.73189,54.18232 -74.93437,92.81068 -134.15134,113.63649 -6.13232,2.15658 -8.98654,1.15651 -10.9643,-5.21635 -10.01527,-32.27136 -29.21999,-58.90037 -51.88045,-83.36148 -4.67449,-5.04591 -10.03987,-7.33843 -16.29774,-3.80457 -7.70612,4.35178 -16.14544,8.66207 -16.24253,19.27208 -0.0473,5.15431 5.05231,7.65998 7.78716,11.38991 2.64089,3.60167 7.46241,6.00964 6.61393,12.4368 -27.3511,0 -54.50339,0 -81.74098,0 -0.31396,-4.62095 2.81187,-6.52258 4.97338,-8.83776 26.55688,-28.44442 55.29238,-54.5189 85.20193,-79.40776 25.5352,-21.24863 48.62522,-44.93925 63.06568,-75.44547 25.26595,-53.37557 19.74808,-104.92214 -10.63731,-154.556 -10.21283,-16.68248 -23.73191,-30.71567 -37.20268,-44.71791 -4.10644,-4.26845 -8.99018,-7.85292 -15.52216,-5.16195 -7.75475,3.19473 -13.75905,8.59675 -16.80247,16.39355 -1.64215,4.2071 2.43756,7.08645 4.90215,9.91997 8.73924,10.04734 18.0739,19.60074 26.45383,29.93266 42.30837,52.16356 39.66838,117.82299 -6.03685,167.20391 -25.7115,27.77921 -55.24708,51.34847 -83.02557,76.85154 -35.03504,32.16521 -66.83181,66.73808 -82.76637,112.87454 -2.58732,7.49119 -6.84445,4.50374 -11.02399,2.42016 C 345.94612,514.29221 311.6277,488.09639 284.22261,453.12624 250.34002,409.8906 232.71846,360.82029 228.58655,306.14416 221.8475,216.96917 252.17784,141.96188 315.27046,80.305579 357.19871,39.331811 408.04827,14.356181 466.63314,6.1361596 529.87832,-2.7377422 589.72548,7.7685098 646.93633,37.280804 M 424.90152,242.03998 c 0.905,-4.61476 1.52994,-9.30563 2.76046,-13.83196 7.9779,-29.34725 23.12754,-54.47167 44.8928,-75.66251 18.49239,-18.00433 36.24302,-36.85902 55.6937,-53.758418 12.16232,-10.566951 12.49825,-37.118947 7.33614,-49.195081 -3.90859,1.637242 -6.98405,4.405438 -10.10678,7.188859 -12.21988,10.892032 -24.69766,21.499652 -36.77382,32.547145 -23.74598,21.723225 -47.79427,43.179265 -66.55071,69.687305 -25.56826,36.135 -37.14351,76.24183 -31.76984,120.24019 5.42307,44.40257 29.956,79.25523 59.37553,111.13768 5.01369,5.43345 11.40328,5.65008 17.38964,1.65146 3.63995,-2.4313 6.84096,-5.67046 9.79096,-8.94986 4.78517,-5.31938 4.91568,-10.75999 -0.25367,-16.21403 -5.5335,-5.83821 -10.91759,-11.8294 -16.15099,-17.93883 -25.99721,-30.34883 -40.44966,-64.67258 -35.63342,-106.90195 m 292.91793,23.18249 c 1.72511,2.58335 3.78496,5.38602 6.65716,6.06245 9.56535,2.25281 10.70818,8.90997 9.98485,17.01293 -0.27024,3.02782 -0.23008,6.11227 -0.015,9.14848 0.42592,6.01255 -1.29259,9.2551 -8.00993,11.02282 -18.68008,4.91556 -26.14625,21.12998 -18.26779,38.77279 2.16831,4.85572 1.39934,8.30407 -1.45639,12.18633 -9.53048,12.95554 -19.02486,25.93975 -28.34772,39.04485 -3.31104,4.65442 -6.78365,5.83624 -12.69003,4.51793 -23.07751,-5.15059 -45.97699,19.05354 -39.80341,41.76482 4.27807,15.73807 14.73206,25.01899 30.85889,27.64972 10.78382,1.75912 26.37715,-6.23011 32.3896,-16.75832 7.75106,-13.57257 7.58594,-27.06541 -2.15886,-39.57724 -3.18222,-4.08586 -2.9446,-7.00179 -0.43507,-11.07005 8.76121,-14.20272 19.25973,-27.12538 29.21043,-40.45331 2.52083,-3.37637 5.38835,-4.82766 10.00063,-3.78282 8.2504,1.86904 15.98509,0.26564 22.36172,-5.84669 11.40647,-10.93385 11.90571,-28.66633 0.89077,-40.3919 -2.90514,-3.09255 -5.63806,-5.78937 -5.50863,-10.58236 0.24718,-9.14677 0.0665,-18.30878 -0.10761,-27.46118 -0.0575,-3.01832 0.8677,-5.15042 3.21202,-7.17761 7.31295,-6.32356 10.73948,-14.03031 7.08732,-23.68513 -3.51621,-9.29541 -10.08388,-13.66402 -21.47267,-13.51801 -4.50115,0.0578 -7.25236,-1.40855 -9.43543,-5.17385 -7.09272,-12.2334 -13.98088,-24.61156 -21.6805,-36.45772 -5.1726,-7.95836 -6.49009,-13.32448 2.01774,-20.84664 12.42994,-10.98968 12.14971,-28.97787 1.63126,-41.28206 -10.16736,-11.8935 -28.71364,-14.69083 -41.47585,-6.25582 -10.47717,6.92471 -17.11694,22.24013 -14.36847,33.14235 3.6611,14.52167 15.52685,25.06228 29.92724,25.86478 4.40018,0.24519 7.10635,1.5754 9.24284,5.43281 8.06087,14.55488 16.38397,28.96445 24.58139,43.44402 3.07556,5.43259 4.84999,10.71234 2.40827,17.32059 -2.02699,5.48556 -1.05427,11.53445 2.77124,17.93304 M 301.53613,197.2651 c -3.75475,3.26043 -8.57941,1.09163 -12.78006,2.59023 -17.95229,6.40468 -21.57446,28.56343 -6.77062,42.29617 8.04562,7.46349 6.30037,24.59599 -2.90444,28.5127 -12.46628,5.30453 -18.57653,17.76172 -14.55656,29.67718 4.43138,13.135 15.57849,18.70341 29.88458,14.33334 4.39256,-1.34175 6.52524,-0.21556 8.74265,3.41778 4.47694,7.33579 9.10716,14.60676 14.13981,21.56771 6.91541,9.56525 13.91068,18.84978 5.2273,30.99691 -0.74335,1.03977 -0.7796,2.63657 -0.98934,3.99846 -2.5493,16.55009 5.43924,31.51357 20.3085,38.09731 13.19046,5.84045 29.81576,1.40449 39.60428,-10.56711 9.60312,-11.7448 10.35135,-28.49292 1.83412,-41.05376 -8.79808,-12.97497 -24.66014,-18.09637 -40.18877,-12.30015 -5.23055,1.95231 -8.32685,0.86495 -11.11777,-3.53644 -7.12933,-11.24305 -14.18032,-22.54581 -21.69372,-33.52978 -2.52534,-3.69182 -2.57928,-6.61187 -1.16627,-10.67813 3.25716,-9.37319 2.45453,-19.25994 -5.8291,-24.94052 -9.94099,-6.81707 -7.97552,-15.14052 -6.63992,-24.13588 0.44783,-3.01629 1.61352,-5.1634 4.9752,-5.71718 15.71438,-2.58864 23.03115,-21.91745 12.73262,-37.08453 -2.45443,-3.61477 -3.31414,-6.5388 -0.98258,-10.57729 9.01382,-15.6134 17.88011,-31.3071 28.0892,-46.1936 2.48676,-3.62605 4.97063,-5.68013 10.17979,-5.08767 9.17161,1.04318 18.91175,-7.74474 20.51403,-17.1523 2.03956,-11.97484 -3.28125,-21.19816 -14.31305,-24.81112 -8.68323,-2.84379 -18.90793,1.97638 -23.51537,10.98951 -3.07751,6.02026 -3.81474,12.20399 -1.01345,18.4276 2.01733,4.48195 1.60067,8.24074 -1.03149,12.46461 -10.11872,16.23806 -19.91949,32.67421 -30.73957,49.99595 m 235.17727,97.54273 c 10.2724,-7.2e-4 20.54632,-0.11228 30.81648,0.0378 6.5378,0.0955 11.75574,-1.52579 12.61042,-8.96751 0.65621,-5.71462 -4.50155,-10.05888 -12.65779,-10.09178 -36.9243,-0.14893 -73.84996,-0.15359 -110.7741,0.0133 -7.55396,0.0342 -14.06511,5.70136 -13.22807,11.09098 1.18233,7.61218 7.03457,8.09708 13.27536,8.06504 26.09685,-0.13376 52.19451,-0.11427 79.9577,-0.14826 m -63.14625,-99.47488 c -5.22735,0.17042 -10.55226,-0.73707 -15.61831,1.26721 -5.55942,2.1994 -7.28569,6.66475 -6.28399,12.08805 0.9085,4.91872 4.94346,5.14644 9.0617,5.12677 33.21347,-0.15842 66.42739,-0.22902 99.64086,-0.37455 3.03123,-0.0133 6.13485,-0.015 9.07346,-0.63945 4.1529,-0.88294 7.19114,-3.56864 6.96613,-8.04839 -0.20496,-4.07881 -2.42554,-7.56613 -6.61972,-8.65768 -2.88727,-0.75143 -6.03115,-0.68713 -9.06095,-0.69304 -28.51102,-0.0556 -57.02203,-0.048 -87.15918,-0.069 M 596.55497,83.461918 c 1.64114,-1.874425 3.50696,-3.597837 4.88517,-5.648945 6.48705,-9.655032 5.25749,-22.305425 -2.82676,-30.56525 -8.85088,-9.043126 -20.76341,-10.692088 -31.05543,-4.298858 -9.82025,6.100179 -14.5041,19.140393 -10.67361,29.71657 5.96934,16.481878 22.30906,21.370679 39.67063,10.796483 z"
     id="path1"
     style="stroke-width:1.66584" />
  <path
     stroke="none"
     d="m 828.3661,675.71568 c -32.41176,45.0965 -64.48851,89.6894 -96.50374,134.32642 -3.53696,4.93174 -7.407,9.78121 -7.61422,16.32684 -0.20823,6.57784 1.4694,12.49022 7.88468,15.22243 6.15956,2.6233 11.87153,1.10917 16.48716,-4.14925 18.12067,-20.64424 36.3912,-41.15701 54.46938,-61.83815 19.72388,-22.56386 39.04106,-45.48926 59.06019,-67.78593 8.03791,-8.95225 11.74955,-18.17588 11.66241,-30.55141 -0.54712,-77.71427 -0.32669,-155.43416 -0.2731,-233.15223 0.008,-12.22064 4.35452,-22.24297 15.95134,-27.93676 11.21462,-5.50603 22.07855,-4.82955 32.13439,2.65896 9.78405,7.286 12.63237,17.93943 12.72917,29.4058 0.20162,23.85364 0.061,47.7102 1.51425,71.74177 1.95286,-12.37543 3.98605,-24.73882 5.84131,-37.12891 3.43996,-22.97436 6.58454,-45.99494 10.24586,-68.93337 1.5416,-9.65741 4.21147,-18.9579 13.71185,-24.48739 10.63498,-6.18975 21.07605,-6.34638 31.4002,0.30268 10.61367,6.83556 15.12257,17.06387 13.68407,29.25518 -3.5359,29.96567 -7.6042,59.86943 -11.56944,89.7834 -4.2191,31.83019 -8.3358,63.67664 -12.91879,95.45518 -5.01694,34.78744 -10.51682,69.50523 -15.80361,104.25379 -0.74873,4.92157 -2.26622,9.87577 -2.07598,14.76226 0.55788,14.32078 -7.12903,23.81556 -16.13853,33.92365 -44.66835,50.11547 -88.59671,100.89009 -132.83985,151.38501 -31.44718,35.89067 -62.99063,71.69705 -94.45377,107.57375 -2.3188,2.644 -4.83027,4.2872 -8.54189,4.2718 -51.60541,-0.2149 -103.21204,1.361 -154.81634,-0.1438 -0.51304,-0.015 -1.01603,-0.3723 -1.68628,-0.6331 -2.06165,-2.5541 -1.324,-5.7267 -1.32685,-8.6718 -0.0288,-29.14397 0.3703,-58.29279 -0.0555,-87.43013 -0.25072,-17.15882 5.09695,-31.93632 14.9957,-45.67746 38.44139,-53.36337 78.3063,-105.65884 117.9198,-158.14648 23.0646,-30.56037 45.61808,-61.50619 68.4774,-92.22217 13.99645,-18.80698 36.50266,-24.36457 55.0469,-13.18436 14.56715,8.78235 22.17638,22.05405 22.93435,39.16591 0.38739,8.74631 -4.53864,15.17937 -9.53261,22.25787 z"
     id="path2"
     style="stroke-width:1.66584" />
  <path
     stroke="none"
     d="M 174.5441,872.9447 C 138.35187,832.28528 102.71788,791.9195 66.621327,751.97161 59.607474,744.20935 57.147556,735.42933 55.693939,725.73507 49.742511,686.044 43.197455,646.43489 37.808975,606.66852 31.827172,562.5233 25.060923,518.47797 20.382514,474.15475 c -1.887465,-17.88153 -4.462681,-35.69469 -6.94995,-53.50753 -2.615581,-18.73159 6.420631,-32.1257 24.200462,-35.40903 14.665994,-2.70826 30.945539,9.04788 33.754786,25.43387 3.365459,19.63039 5.846245,39.41441 8.590903,59.14851 2.821932,20.2897 5.50022,40.59942 8.492813,60.90437 1.558876,-28.74161 2.489963,-57.49816 1.957492,-86.28843 -0.131468,-7.1091 0.919038,-13.83916 5.28007,-19.69313 7.56032,-10.1485 20.64576,-14.42185 32.61099,-10.6977 13.51262,4.20573 21.59495,14.44772 21.62047,28.19339 0.12114,65.2354 0.24443,130.47142 0.0576,195.70639 -0.0429,14.97627 1.59781,29.91443 0.34833,44.92975 -0.58478,7.02684 1.87102,13.37326 6.78582,19.02221 35.51981,40.82473 70.83647,81.82628 106.19381,122.79225 3.26223,3.77966 6.58176,7.54284 9.47867,11.59662 4.06623,5.69032 9.36719,7.94079 15.9004,5.75824 6.50138,-2.17197 9.21813,-7.63537 10.00932,-14.09598 0.75896,-6.19718 -1.90868,-11.38695 -5.32465,-16.22443 -31.8554,-45.11176 -63.59037,-90.30972 -95.67977,-135.25463 -17.45867,-24.45271 -8.93579,-54.78446 18.84133,-65.19159 17.01883,-6.37638 35.89866,-0.45316 47.85698,15.60869 26.01825,34.94653 51.69065,70.15058 77.72136,105.08784 33.99047,45.62042 67.73128,91.43963 102.51485,136.45042 15.03841,19.46002 21.99697,40.53313 21.64488,64.74808 -0.37122,25.53419 -0.11894,51.0769 -0.23264,76.61537 -0.049,10.9721 -0.15542,10.6945 -11.06475,10.6637 -47.74649,-0.1348 -95.49401,-0.204 -143.23979,0.01 -6.48396,0.029 -10.88414,-2.2028 -15.00347,-6.9605 -36.87565,-42.59014 -73.90111,-85.05051 -110.88198,-127.54942 -3.64382,-4.18758 -7.28403,-8.3781 -11.3227,-13.00663 z"
     id="path3"
     style="stroke-width:1.66584" />
  <path
     stroke="none"
     d="m 576.62378,524.39391 c 1.60249,3.85037 4.12382,6.69207 4.04391,10.63711 -2.75102,3.46025 -6.64515,2.10944 -10.01201,2.11935 -36.06717,0.10578 -72.13471,0.0695 -108.20218,0.0566 -3.89359,-10e-4 -7.74166,0.0481 -11.46348,1.51551 -6.15649,2.42744 -8.35531,7.4067 -7.5044,13.31365 0.85437,5.93145 6.24929,4.4289 10.12461,4.43464 41.89344,0.0623 83.78713,-0.0133 125.68067,-0.0393 11.68904,-0.007 12.27327,0.56165 12.67021,11.94388 0.28774,8.24678 -2.21509,11.41527 -10.51653,11.43718 -46.88689,0.12394 -93.77519,0.16442 -140.66127,-0.0931 -12.15994,-0.0668 -18.02112,-8.16631 -16.34711,-21.63368 2.23379,-17.97018 12.0786,-32.53083 21.75752,-47.11093 2.14127,-3.22553 5.57565,-3.1813 8.96283,-3.18089 34.95644,0.005 69.91358,0.0988 104.86863,-0.1336 5.50243,-0.0365 8.89653,1.88448 11.18483,6.65028 1.55837,3.24572 3.41383,6.34873 5.41377,10.08319 z"
     id="path4"
     style="stroke-width:1.66584" />
  <path
     stroke="none"
     d="m 464.78851,786.20031 c 1.15807,-0.39552 1.70727,-0.75861 2.21218,-0.70512 15.12387,1.60677 23.29699,-9.07417 32.42204,-18.18433 5.88992,-5.88014 12.05195,-11.4869 17.99911,-17.31122 5.55531,-5.44052 10.12975,-10.79705 10.53972,-19.73669 0.50003,-10.90848 9.39891,-17.6302 19.70383,-17.52426 9.86378,0.10129 18.51843,7.66618 20.22961,17.68195 1.85791,10.87492 -2.64598,19.63227 -12.90861,23.06603 -5.80278,1.94157 -10.09652,5.24438 -14.22197,9.50089 -11.20139,11.55726 -22.6277,22.89907 -34.08715,34.20235 -3.57331,3.52456 -5.24693,7.36319 -5.23885,12.52317 0.024,15.28517 -8.30169,25.49606 -22.0143,27.77286 -12.0027,1.99283 -25.00669,-5.82647 -28.96595,-17.41739 -4.69357,-13.74052 0.26029,-25.90437 14.33034,-33.86824 z"
     id="path5"
     style="stroke-width:1.66584" />
  <path
     stroke="none"
     d="m 428.05252,594.52964 c 13.41852,19.5076 9.93671,37.60338 -8.43519,46.45676 -12.36338,5.95787 -27.49753,2.28671 -35.65687,-8.64954 -8.76801,-11.75185 -7.96073,-27.51367 1.94433,-37.96334 9.43734,-9.95625 25.59255,-11.68228 37.21122,-3.92028 1.59934,1.06845 3.01832,2.40675 4.93651,4.0764 z"
     id="path12"
     style="stroke-width:1.66584" />
  <path
     stroke="none"
     d="m 485.90543,609.35026 c 28.02562,-7.2e-4 55.21822,-0.017 82.41081,0.015 4.35066,0.005 9.11026,-0.97765 9.08107,6.21161 -0.0526,12.9768 -0.93835,14.84604 -9.63732,14.85209 -37.73678,0.0263 -75.47575,-0.24991 -113.20851,0.12393 -8.4849,0.0841 -9.40201,-3.86154 -9.34039,-10.6498 0.0591,-6.51635 0.22927,-11.31961 9.07294,-10.70803 10.21756,0.70648 20.52183,0.15876 31.6214,0.15509 z"
     id="path13"
     style="stroke-width:1.66584" />
  <path
     stroke="none"
     d="m 607.15344,659.95487 c 9.38285,8.70347 14.36899,18.54954 10.60284,30.82666 -3.22156,10.50168 -10.19603,17.52252 -21.43333,19.75692 -13.23388,2.63145 -24.76582,-2.35732 -31.03518,-13.67312 -5.96537,-10.76714 -4.22379,-26.54543 3.8555,-34.93075 7.71386,-8.00577 22.15217,-10.1761 33.25841,-4.93844 1.49268,0.704 2.84364,1.70875 4.75176,2.95873 z"
     id="path14"
     style="stroke-width:1.66584" />
  <path
     stroke="none"
     d="m 596.3747,637.92187 c -11.01939,-9.64839 -13.62635,-21.35607 -9.71664,-34.26505 3.32801,-10.98844 12.1004,-16.2531 23.06328,-17.46985 13.25147,-1.47067 25.07959,6.12321 30.21305,18.70114 4.46413,10.93781 0.89229,24.30737 -8.64317,32.35127 -10.08297,8.5058 -22.01909,8.87828 -34.91652,0.68249 z"
     id="path15"
     style="stroke-width:1.66584" />
  <path
     stroke="none"
     d="m 457.62502,699.60679 c -9.77426,10.34652 -20.66824,15.04165 -33.99297,9.40949 -15.39136,-6.50575 -21.28342,-23.73332 -13.70367,-38.98574 7.22345,-14.53512 25.7255,-19.85616 39.86702,-11.54394 12.55001,7.3768 18.57511,28.62488 7.82962,41.12019 z"
     id="path16"
     style="stroke-width:1.66584" />
  <path
     stroke="none"
     d="m 522.68046,802.7861 c 5.09381,-11.96346 13.93686,-17.93665 25.97586,-18.26679 10.52405,-0.28866 20.33169,7.36674 24.05461,17.38374 3.98676,10.72738 1.57311,21.71507 -7.13401,29.45476 -7.53379,6.6968 -16.36933,9.11097 -26.09979,5.25953 -10.48042,-4.14823 -16.11555,-12.22405 -17.36605,-23.27233 -0.36765,-3.2483 0.19634,-6.60195 0.56938,-10.55891 z"
     id="path17"
     style="stroke-width:1.66584" />
  <path
     stroke="none"
     d="m 543.40461,665.92165 c 3.87636,0.4677 7.29914,-1.56517 10.71754,1.37373 -1.78195,4.71883 -3.0536,9.71503 -2.82341,14.98319 0.18679,4.27054 -2.84922,4.78014 -6.15141,4.78136 -22.4022,0.008 -44.80449,-0.0182 -67.20639,0.0668 -4.20994,0.0166 -5.61463,-1.81937 -5.98554,-5.9496 -1.36651,-15.21715 -1.5122,-15.20271 14.28931,-15.21277 18.80713,-0.0117 37.61427,-0.0262 57.1599,-0.0426 z"
     id="path18"
     style="stroke-width:1.66584" />
  <path
     stroke="none"
     d="m 480.70375,758.72738 c -12.81431,-1.12614 -20.77606,-9.28697 -21.7897,-21.58197 -0.81117,-9.83957 6.35452,-19.52176 16.44725,-22.22335 9.52632,-2.55 20.15528,2.89234 24.53564,12.56292 6.28386,13.873 -1.80875,27.5322 -19.19319,31.2424 z"
     id="path19"
     style="stroke-width:1.66584" />
</svg>
