<svg
  version="1.1"
  x="0px"
  y="0px"
  width="100%"
  viewBox="0 0 1024 1024"
  xml:space="preserve"
  xmlns="http://www.w3.org/2000/svg"
  xmlns:svg="http://www.w3.org/2000/svg"
>
  <path
     stroke="none"
     d="m 752.35466,77.391486 c 100.56371,53.897124 175.78397,130.866744 223.71535,233.383874 30.82459,65.92892 44.65509,135.51832 42.88599,208.65463 -2.0954,86.61663 -20.81524,168.623 -63.64824,244.14051 -54.78756,96.59403 -133.58995,165.4591 -239.15955,202.58651 -10.93245,3.84466 -16.02084,2.06177 -19.54671,-9.2995 -17.85481,-57.53207 -52.09221,-105.00518 -92.49035,-148.61345 -8.33349,-8.99565 -17.89868,-13.08266 -29.05495,-6.78264 -13.73816,7.75818 -28.78343,15.44239 -28.95652,34.35748 -0.0843,9.1889 9.00705,13.6559 13.88263,20.30547 4.70807,6.42091 13.30368,10.71374 11.79104,22.17182 -48.76042,0 -97.16642,0 -145.72449,0 -0.55971,-8.23804 5.01289,-11.62819 8.86634,-15.7556 47.34453,-50.70955 98.57301,-97.19407 151.89453,-141.56492 45.52312,-37.88119 86.68707,-80.11587 112.43093,-134.50111 45.04311,-95.1558 35.20608,-187.05092 -18.96376,-275.53615 -18.20702,-29.74085 -42.30828,-54.75865 -66.32342,-79.72127 -7.3208,-7.60962 -16.02733,-13.99987 -27.67228,-9.20251 -13.82485,5.69543 -24.52907,15.32593 -29.95476,29.22575 -2.92756,7.50025 4.34558,12.63343 8.73935,17.68492 15.57997,17.91199 32.22142,34.9434 47.16082,53.36273 75.42564,92.99507 70.71917,210.05003 -10.76225,298.08432 -45.83742,49.52365 -98.49225,91.54196 -148.01461,137.0078 -62.45905,57.34283 -119.14503,118.97793 -147.55252,201.22814 -4.61257,13.35498 -12.20201,8.02908 -19.65312,4.31456 C 215.76156,927.78801 154.58008,881.08717 105.7234,818.74381 45.318904,741.66507 13.903904,654.18452 6.5377034,556.71014 -5.4764006,397.7326 48.595295,264.01266 161.07425,154.09431 235.82222,81.047937 326.47475,36.522401 430.91747,21.868081 543.6684,6.0480502 650.36149,24.778169 752.35466,77.391486 M 356.52004,442.42782 c 1.61339,-8.22701 2.72751,-16.5897 4.92123,-24.65906 14.22268,-52.31908 41.23084,-97.10987 80.03306,-134.88804 32.96748,-32.09739 64.61258,-65.71076 99.28846,-95.83832 21.68249,-18.83833 22.28137,-66.17415 13.07857,-87.702996 -6.96807,2.918806 -12.45088,7.853836 -18.01795,12.816006 -21.78511,19.41787 -44.02999,38.32871 -65.55887,58.02373 -42.33337,38.72728 -85.20568,76.97824 -118.6439,124.23569 -45.58205,64.42001 -66.21794,135.92084 -56.63798,214.35932 9.66803,79.1591 53.40434,141.293 105.85228,198.13173 8.9382,9.68654 20.3293,10.07274 31.00154,2.94416 6.48916,-4.33442 12.19579,-10.10907 17.45493,-15.95545 8.5308,-9.48317 8.76347,-19.18247 -0.45223,-28.90571 -9.8649,-10.40812 -19.46344,-21.08897 -28.79333,-31.98062 -46.34677,-54.10465 -72.11201,-115.29564 -63.52581,-190.58044 m 522.20216,41.3288 c 3.07546,4.60549 6.74767,9.60198 11.86812,10.80789 17.05271,4.01622 19.0901,15.88433 17.80058,30.32996 -0.48177,5.39787 -0.41018,10.8967 -0.0267,16.30953 0.75931,10.71893 -2.30438,16.49962 -14.27978,19.65104 -33.30209,8.76326 -46.61247,37.66967 -32.56707,69.12255 3.86557,8.65658 2.49469,14.80416 -2.59639,21.72529 -16.99056,23.09661 -33.91675,46.24434 -50.53717,69.60757 -5.90278,8.29771 -12.09361,10.40462 -22.62326,8.05439 -41.14165,-9.18227 -81.96591,33.96787 -70.9599,74.45662 7.62676,28.05719 26.26371,44.60283 55.01397,49.29279 19.22495,3.13609 47.02411,-11.10678 57.74286,-29.87605 13.81827,-24.19662 13.5239,-48.25111 -3.84873,-70.55669 -5.67313,-7.28411 -5.24951,-12.48251 -0.77562,-19.73524 15.61913,-25.32003 34.33546,-48.35802 52.07516,-72.11851 4.49404,-6.01925 9.60613,-8.60656 17.82872,-6.74386 14.70848,3.33205 28.49757,0.47357 39.86556,-10.42324 20.33499,-19.49242 21.22502,-51.10516 1.58803,-72.00903 -5.17916,-5.51328 -10.0513,-10.32106 -9.82056,-18.8658 0.44066,-16.30649 0.11855,-32.64015 -0.19184,-48.95668 -0.10251,-5.38094 1.5469,-9.18196 5.72626,-12.79595 13.03723,-11.27339 19.1459,-25.01267 12.63498,-42.22489 -6.26855,-16.57147 -17.97713,-24.35965 -38.2806,-24.09935 -8.02447,0.10304 -12.92921,-2.51111 -16.8211,-9.22373 -12.64461,-21.80921 -24.92454,-43.87649 -38.65111,-64.99534 -9.2215,-14.18784 -11.57027,-23.75434 3.59714,-37.16454 22.15959,-19.59196 21.66001,-51.66057 2.90814,-73.59598 -18.12595,-21.20325 -51.1895,-26.19021 -73.94145,-11.15262 -18.67828,12.34509 -30.51539,39.6488 -25.61553,59.08483 6.52686,25.88864 27.68064,44.68001 53.35307,46.11068 7.84446,0.43711 12.66891,2.80856 16.47776,9.68539 14.37059,25.94785 29.20867,51.63664 43.8227,77.45023 5.48298,9.685 8.64636,19.09753 4.29337,30.87844 -3.61364,9.77944 -1.87951,20.56315 4.94045,31.9703 M 136.58924,362.60499 c -6.69381,5.81256 -15.29502,1.94611 -22.78377,4.61775 -32.004607,11.418 -38.462065,50.92172 -12.07039,75.40389 14.34341,13.30561 11.23205,43.84873 -5.177909,50.83128 -22.224376,9.4567 -33.117481,31.66487 -25.950842,52.90727 7.900084,23.41655 27.772698,33.34368 53.277011,25.5529 7.83087,-2.39202 11.63293,-0.38429 15.58604,6.09308 7.9813,13.07794 16.23587,26.04033 25.20788,38.45003 12.32851,17.05254 24.79939,33.60462 9.31901,55.26003 -1.32521,1.85366 -1.38984,4.70037 -1.76375,7.12829 -4.54479,29.50483 9.69685,56.18111 36.20517,67.91834 23.51541,10.41211 53.15432,2.50386 70.60489,-18.83862 17.12006,-20.93815 18.45397,-50.79601 3.2698,-73.18897 -15.68486,-23.13125 -43.9631,-32.26147 -71.64691,-21.92821 -9.32481,3.4805 -14.84476,1.542 -19.8203,-6.30462 -12.70988,-20.04365 -25.2801,-40.19375 -38.67468,-59.77552 -4.50208,-6.58163 -4.59824,-11.78738 -2.07918,-19.03654 5.80673,-16.71014 4.37583,-34.33584 -10.39189,-44.46294 -17.72239,-12.1532 -14.21843,-26.99191 -11.83737,-43.02847 0.79837,-5.37732 2.87651,-9.2051 8.86958,-10.19235 28.01496,-4.61493 41.059,-39.07354 22.6992,-66.1128 -4.37566,-6.44426 -5.90832,-11.6571 -1.75171,-18.85676 16.06947,-27.83493 31.87594,-55.81302 50.07629,-82.35207 4.43329,-6.46437 8.86143,-10.1263 18.14811,-9.07009 16.35077,1.85974 33.7151,-13.80701 36.57158,-30.57842 3.63604,-21.34826 -5.84968,-37.79122 -25.51672,-44.23226 -15.48011,-5.06979 -33.70829,3.52341 -41.92225,19.59166 -5.48646,10.73267 -6.80076,21.75677 -1.80674,32.85197 3.59642,7.99024 2.85361,14.69126 -1.8389,22.2214 -18.03924,28.94855 -35.51165,58.25025 -54.80125,89.13075 m 419.26447,173.8952 c 18.31321,-10e-4 36.62914,-0.20016 54.93836,0.0674 11.65533,0.17026 20.95766,-2.72011 22.48135,-15.98691 1.16986,-10.18779 -8.02518,-17.93256 -22.5658,-17.99121 -65.82714,-0.26551 -131.6567,-0.27382 -197.48355,0.0237 -13.4669,0.061 -25.07471,10.16415 -23.58247,19.77254 2.10781,13.57069 12.54095,14.43515 23.66677,14.37803 46.5244,-0.23846 93.05025,-0.20372 142.54534,-0.26431 M 443.27914,359.15966 c -9.31911,0.30382 -18.81214,-1.31402 -27.84369,2.25913 -9.9111,3.921 -12.98863,11.88165 -11.20284,21.55008 1.61964,8.7689 8.813,9.17487 16.15483,9.1398 59.21163,-0.28242 118.42405,-0.40829 177.63567,-0.66773 5.40396,-0.0237 10.93696,-0.0267 16.1758,-1.13999 7.40362,-1.57407 12.82007,-6.36202 12.41893,-14.34834 -0.36539,-7.27154 -4.32415,-13.48859 -11.80137,-15.43456 -5.1473,-1.33962 -10.75209,-1.22499 -16.15349,-1.23552 -50.82829,-0.0991 -101.65655,-0.0856 -155.38384,-0.12301 M 662.53682,159.7213 c 2.92576,-3.34165 6.25207,-6.41408 8.70908,-10.07071 11.56485,-17.2126 9.37284,-39.76521 -5.03943,-54.490487 -15.77899,-16.121717 -37.01616,-19.061419 -55.36436,-7.663829 -17.50714,10.875151 -25.85731,34.122716 -19.02847,52.977496 10.64189,29.38322 39.77168,38.09878 70.72318,19.24753 z"
     style="stroke-width:2.96979" />
  <path
     stroke="none"
     d="m 627.00431,945.79691 c 2.85685,6.86429 14.56043,30.94821 13.001,38.29616 -2.2279,7.11344 -16.63535,11.60572 -41.16256,14.99155 -49.2868,8.29188 -49.86668,8.79188 -95.62143,8.39188 -41.41204,-0.4668 -41.84303,1.4288 -103.15075,-5.4005 -38.04765,-4.2382 -38.38331,-3.49654 -37.06452,-22.10275 0.42994,-6.06586 2.50544,-13.84808 6.25995,-24.09558 2.98529,-8.14801 6.10788,-18.30803 15.07807,-29.69714 10.6298,-13.49625 19.5787,-9.97812 26.1134,-9.97738 62.31892,0.009 124.63909,0.17613 186.95553,-0.23818 9.80951,-0.0651 15.86037,3.35957 19.93986,11.85585 2.7782,5.78633 6.08604,11.31825 9.65145,17.9759 z"
     style="stroke-width:2.96979" />
</svg>
