<?xml version="1.0" encoding="UTF-8"?>
<!DOCTYPE svg PUBLIC "-//W3C//DTD SVG 1.1//EN" "http://www.w3.org/Graphics/SVG/1.1/DTD/svg11.dtd">
<svg xmlns="http://www.w3.org/2000/svg" version="1.1" width="512px" height="512px" style="shape-rendering:geometricPrecision; text-rendering:geometricPrecision; image-rendering:optimizeQuality; fill-rule:evenodd; clip-rule:evenodd" xmlns:xlink="http://www.w3.org/1999/xlink">
<g><path style="opacity:0.994" fill="#3fb048" d="M 232.5,-0.5 C 248.5,-0.5 264.5,-0.5 280.5,-0.5C 368.803,10.7096 435.637,54.3763 481,130.5C 496.381,159.222 506.548,189.555 511.5,221.5C 511.5,244.5 511.5,267.5 511.5,290.5C 499.249,366.198 461.916,426.031 399.5,470C 365.858,491.993 329.192,505.826 289.5,511.5C 266.833,511.5 244.167,511.5 221.5,511.5C 182.231,505.538 145.898,491.705 112.5,470C 108.174,449.083 106.007,427.916 106,406.5C 126.051,406.55 146.218,406.05 166.5,405C 213.487,432.084 262.821,437.084 314.5,420C 380.584,393.571 418.751,345.071 429,274.5C 433.687,214.41 413.853,164.243 369.5,124C 330.913,92.5855 286.579,78.5855 236.5,82C 248.492,68.0088 261.158,54.6754 274.5,42C 259.336,26.8278 243.003,13.1611 225.5,1C 228.036,0.813823 230.369,0.313823 232.5,-0.5 Z"/></g>
<g><path style="opacity:0.957" fill="#3faf47" d="M 171.5,12.5 C 172.376,12.3691 173.043,12.7025 173.5,13.5C 167.288,25.9231 161.122,38.2564 155,50.5C 141.927,46.9402 128.761,43.7735 115.5,41C 132.98,29.0936 151.647,19.5936 171.5,12.5 Z"/></g>
<g><path style="opacity:0.978" fill="#3fb048" d="M 199.5,13.5 C 213.352,22.0178 226.352,31.6845 238.5,42.5C 229.458,52.3721 220.624,62.3721 212,72.5C 200.614,67.2059 189.114,62.2059 177.5,57.5C 183.792,42.2491 191.125,27.5824 199.5,13.5 Z"/></g>
<g><path style="opacity:0.98" fill="#3fb048" d="M 96.5,61.5 C 113.106,63.1878 129.44,66.3545 145.5,71C 146.516,71.5194 147.182,72.3527 147.5,73.5C 143.853,85.422 140.52,97.422 137.5,109.5C 123.847,110.721 110.18,111.721 96.5,112.5C 95.398,95.5062 95.398,78.5062 96.5,61.5 Z"/></g>
<g><path style="opacity:0.962" fill="#3eaf47" d="M 73.5,73.5 C 74.5,73.5 75.5,73.5 76.5,73.5C 75.5227,87.4815 75.3561,101.482 76,115.5C 62.5696,118.321 49.2363,121.654 36,125.5C 34.7425,125.15 34.4092,124.483 35,123.5C 46.1347,105.531 58.968,88.8645 73.5,73.5 Z"/></g>
<g><path style="opacity:0.949" fill="#3eae46" d="M 169.5,78.5 C 179.373,82.1012 189.04,86.2679 198.5,91C 185.737,96.3097 173.404,102.476 161.5,109.5C 163.023,99.081 165.69,88.7477 169.5,78.5 Z"/></g>
<g><path style="opacity:0.957" fill="#3eaf46" d="M 126.5,130.5 C 128.924,130.192 131.257,130.526 133.5,131.5C 123.2,142.776 113.867,154.776 105.5,167.5C 101.899,156.496 99.5655,145.163 98.5,133.5C 107.947,132.265 117.28,131.265 126.5,130.5 Z"/></g>
<g><path style="opacity:0.982" fill="#3fb048" d="M 74.5,136.5 C 75.8333,136.5 77.1667,136.5 78.5,136.5C 80.5333,151.701 83.5333,166.701 87.5,181.5C 74.8561,189.8 62.1895,198.133 49.5,206.5C 38.0817,189.666 28.7484,171.666 21.5,152.5C 26.4472,149.677 31.7806,147.51 37.5,146C 49.9219,142.645 62.2552,139.479 74.5,136.5 Z"/></g>
<g><path style="opacity:0.966" fill="#3faf47" d="M -0.5,249.5 C -0.5,243.167 -0.5,236.833 -0.5,230.5C 1.56579,212.183 5.56579,194.183 11.5,176.5C 18.8836,190.261 26.5503,203.928 34.5,217.5C 22.2398,227.423 10.5732,238.089 -0.5,249.5 Z"/></g>
<g><path style="opacity:0.956" fill="#3eaf47" d="M 87.5,202.5 C 88.552,202.351 89.552,202.517 90.5,203C 85.3012,218.025 82.6345,233.525 82.5,249.5C 79.6448,248.166 77.1448,246.166 75,243.5C 69.2152,236.758 64.0486,229.591 59.5,222C 68.3459,214.748 77.6792,208.248 87.5,202.5 Z"/></g>
<g><path style="opacity:0.98" fill="#3fb048" d="M 42.5,233.5 C 44.3904,233.297 45.8904,233.963 47,235.5C 54.7986,246.297 62.9653,256.797 71.5,267C 63.5482,279.065 55.7149,291.232 48,303.5C 32.6359,294.124 18.4692,283.29 5.5,271C 6.31686,269.51 7.15019,268.01 8,266.5C 19.0924,254.904 30.5924,243.904 42.5,233.5 Z"/></g>
<g><path style="opacity:0.956" fill="#3faf47" d="M 81.5,279.5 C 82.4972,279.47 83.1639,279.97 83.5,281C 86.2286,297.08 90.8952,312.58 97.5,327.5C 97,327.833 96.5,328.167 96,328.5C 84.1436,323.823 72.977,317.99 62.5,311C 68.4722,300.212 74.8055,289.712 81.5,279.5 Z"/></g>
<g><path style="opacity:0.969" fill="#3eaf47" d="M 0.5,290.5 C 0.559992,289.957 0.893326,289.624 1.5,289.5C 2.70034,290.531 4.03368,291.365 5.5,292C 16.9038,301.077 28.5704,309.744 40.5,318C 33.9758,332.536 27.6425,347.036 21.5,361.5C 11.2205,338.698 4.2205,315.031 0.5,290.5 Z"/></g>
<g><path style="opacity:0.984" fill="#3fb048" d="M 53.5,326.5 C 67.3293,332.662 81.1627,338.995 95,345.5C 93.9629,360.482 92.7962,375.482 91.5,390.5C 72.1754,389.001 53.1754,385.668 34.5,380.5C 34.1667,379.833 33.8333,379.167 33.5,378.5C 39.0667,360.707 45.7334,343.374 53.5,326.5 Z"/></g>
<g><path style="opacity:0.953" fill="#3faf47" d="M 109.5,350.5 C 119.407,365.074 131.073,378.074 144.5,389.5C 145.386,390.325 145.719,391.325 145.5,392.5C 132.254,392.823 119.087,392.489 106,391.5C 105.914,377.7 107.081,364.033 109.5,350.5 Z"/></g>
<g><path style="opacity:0.973" fill="#3faf47" d="M 41.5,396.5 C 57.9551,400.465 74.6217,403.131 91.5,404.5C 92.3999,420.698 93.7332,436.865 95.5,453C 95.1667,454.167 94.8333,455.333 94.5,456.5C 75.7332,441.902 59.5665,424.902 46,405.5C 43.9404,402.714 42.4404,399.714 41.5,396.5 Z"/></g>
</svg>
