<svg
   xmlns="http://www.w3.org/2000/svg"
   {% if margin-bottom != null %}
      style="margin-bottom: {{ margin-bottom }}px;"
   {% endif %}
   height="{% if height != null %}{{ height }}{% else %}16{% endif %}"
   viewBox="0 0 512 512"
   >
  <!--!Font Awesome Free 6.5.1 by @fontawesome - https://fontawesome.com License - https://fontawesome.com/license/free Copyright 2024 Fonticons, Inc.-->
  <path d="M 129.25 99.3125 C 127.74964 99.424192 126.30624 99.718753 125 100.125 C 111.30006 134.72482 119.775 161.50006 122.375 168 C 106.3751 185.59988 98.8125 199.37518 98.8125 226.875 C 98.8125 323.0744 155.22536 331.17506 211.125 337.375 C 203.92506 343.97494 197.425 355.12512 195.125 371.125 C 180.82506 377.72494 144.08738 388.78726 122.1875 350.1875 C 108.48756 326.38762 83.625 324.375 83.625 324.375 C 59.125145 324.075 82 339.8125 82 339.8125 C 98.399904 347.31244 109.8125 376.375 109.8125 376.375 C 124.51244 421.17476 194.5 406.1875 194.5 406.1875 C 194.5 427.18738 194.8125 461.42506 194.8125 467.625 C 194.8125 473.74205 190.70392 480.9522 179.5625 479.875 C 179.45954 479.867 179.35303 479.882 179.25 479.875 C 178.17513 479.8012 177.08029 479.68875 176 479.6875 C 154.98276 479.6875 137.18691 493.19219 130.6875 512 L 381.3125 512 C 374.81309 493.19219 357.01724 479.6875 336 479.6875 C 334.92043 479.6982 333.8239 479.7293 332.75 479.8125 C 332.8313 479.7855 332.91872 479.7771 333 479.75 C 322.76796 480.23653 318.875 473.28335 318.875 467.375 C 318.875 459.17506 319.1875 417.51232 319.1875 383.8125 C 319.1875 360.31262 311.38744 345.27494 302.1875 337.375 C 358.08714 331.07506 417 323.3744 417 226.875 C 417 199.47518 407.18738 185.69988 391.1875 168 C 393.7875 161.50006 402.32494 134.82482 388.625 100.125 C 387.31875 99.712498 385.87536 99.42895 384.375 99.3125 C 382.96841 99.20332 381.48317 99.19196 379.9375 99.3125 C 356.75253 101.12065 319.625 127.125 319.625 127.125 C 299.62512 121.52506 278.11238 118.625 256.8125 118.625 C 235.51262 118.625 213.99988 121.52506 194 127.125 C 194 127.125 151.7554 97.637121 129.25 99.3125 z M 97.25 332.3125 C 97.689063 332.3531 98.187502 332.475 98.6875 332.625 C 100.68749 333.625 101.7 335.2 101 336.5 C 100.3 337.9 98.287488 338.1875 96.6875 337.1875 C 94.687512 336.1875 93.675006 334.6125 94.375 333.3125 C 94.725 332.8125 95.325006 332.5 96.0625 332.375 C 96.431248 332.3125 96.810937 332.27188 97.25 332.3125 z M 107.3125 340.75 C 108.35246 340.86931 109.475 341.475 110.375 342.375 C 112.075 344.275 112.425 346.625 111.125 347.625 C 109.825 348.925 107.47499 348.225 105.875 346.625 C 104.17501 344.725 103.8875 342.375 105.1875 341.375 C 105.5125 341.05 105.88906 340.90469 106.3125 340.8125 C 106.63008 340.7434 106.96585 340.71023 107.3125 340.75 z M 116.75 353.625 C 118.22187 353.46563 119.95 354.4625 121 356.1875 C 122.6 358.4875 122.6 361.075 121 362.375 C 119.7 363.375 116.975 362.425 115.375 360.125 C 113.775 357.825 113.775 355.1875 115.375 354.1875 C 115.775 353.8625 116.25938 353.67812 116.75 353.625 z M 129.6875 367.9375 C 130.875 368.1 132.2125 368.725 133.3125 369.875 C 135.3125 371.775 135.925 374.825 134.625 376.125 C 133.325 377.725 130.425 377.425 128.125 375.125 C 125.825 373.225 125.2125 370.175 126.8125 368.875 C 127.4625 368.075 128.5 367.775 129.6875 367.9375 z M 147.0625 378.875 C 147.71094 378.8484 148.35 378.95 149 379.125 C 152 380.025 153.9125 382.3125 153.3125 384.3125 C 152.7125 386.3125 149.725 387.3125 147.125 386.3125 C 144.125 385.7125 142.1125 383.375 142.8125 381.375 C 143.3375 379.875 145.11719 378.95469 147.0625 378.875 z M 187 379.6875 C 189.9 379.3875 192.575 380.725 192.875 382.625 C 193.175 384.625 191.2125 386.4875 188.3125 387.1875 C 185.3125 387.8875 182.675 386.625 182.375 384.625 C 182.075 382.325 184.1 380.3875 187 379.6875 z M 168.3125 382.3125 C 171.3125 382.0125 173.875 383.575 173.875 385.875 C 173.875 387.875 171.5875 389.5 168.6875 389.5 C 165.3875 389.8 163.125 388.175 163.125 385.875 C 163.125 383.875 165.4125 382.3125 168.3125 382.3125 z " />
</svg>
